<?xml version="1.0" encoding="UTF-8" standalone="no"?>
<!-- Created with Inkscape (http://www.inkscape.org/) -->

<svg
   width="63.23542mm"
   height="63.247913mm"
   viewBox="0 0 63.23542 63.247913"
   version="1.1"
   id="svg1"
   xml:space="preserve"
   xmlns="http://www.w3.org/2000/svg"
   xmlns:svg="http://www.w3.org/2000/svg"><defs
     id="defs1" /><g
     id="layer1"
     transform="translate(-103.1959,-82.881793)"><path
       style="fill:#000000"
       d="m 120.6584,145.97797 c -9.64274,-0.86823 -15.18846,-5.57834 -16.98007,-14.42159 -0.43245,-2.13457 -0.48243,-3.90244 -0.48243,-17.06562 0,-13.16318 0.05,-14.931047 0.48243,-17.065627 1.56605,-7.72986 6.02452,-12.29051 13.67278,-13.9861 2.39232,-0.53037 3.23449,-0.55724 17.4625,-0.55724 14.22801,0 15.07018,0.0269 17.4625,0.55724 7.64826,1.69559 12.10673,6.25624 13.67278,13.9861 0.43245,2.13458 0.48243,3.902447 0.48243,17.065627 0,13.16318 -0.05,14.93105 -0.48243,17.06562 -1.55537,7.67715 -6.03142,12.29079 -13.54049,13.95669 -2.17892,0.4834 -3.52779,0.5347 -15.875,0.6038 -7.42156,0.0415 -14.56531,-0.021 -15.875,-0.1389 z m 30.95625,-6.17592 c 4.82516,-1.38772 7.20254,-3.79759 8.52604,-8.64254 0.42417,-1.55277 0.4698,-3.17162 0.4698,-16.66875 0,-13.49713 -0.0456,-15.115977 -0.4698,-16.668747 -1.3384,-4.89951 -3.75882,-7.31993 -8.65833,-8.65833 -1.55277,-0.42417 -3.17162,-0.46979 -16.66875,-0.46979 -13.49713,0 -15.11598,0.0456 -16.66875,0.46979 -4.84523,1.32357 -7.25703,3.70308 -8.64176,8.52604 -0.39862,1.38837 -0.46818,3.312037 -0.55455,15.336167 -0.10323,14.37021 0.0186,16.74547 1.00682,19.63413 1.4407,4.21119 4.73275,6.6938 9.90928,7.47282 0.87312,0.13139 8.01687,0.21344 15.875,0.18233 12.63027,-0.05 14.47164,-0.10952 15.875,-0.51312 z m -19.30208,-9.18881 c -3.51596,-0.5399 -6.43746,-2.03394 -9.01248,-4.60896 -3.20772,-3.20773 -4.7107,-6.88117 -4.7107,-11.51352 0,-4.63235 1.50298,-8.30579 4.7107,-11.51352 3.20773,-3.207717 6.88118,-4.710687 11.51352,-4.710687 4.63235,0 8.30579,1.50297 11.51352,4.710687 3.20772,3.20773 4.7107,6.88117 4.7107,11.51352 0,4.63235 -1.50298,8.30579 -4.7107,11.51352 -3.67506,3.67505 -8.90196,5.39402 -14.01456,4.60896 z m 5.01458,-5.89881 c 3.87665,-1.03554 6.67459,-3.83348 7.71013,-7.71013 2.00018,-7.48784 -5.24937,-14.73739 -12.73721,-12.73721 -3.87665,1.03554 -6.67459,3.83348 -7.71013,7.71013 -1.99999,7.48715 5.25006,14.7372 12.73721,12.73721 z m 12.38212,-23.97129 c -2.29569,-1.399767 -2.19995,-5.259387 0.16075,-6.480157 0.43577,-0.22535 1.40755,-0.40972 2.1595,-0.40972 1.23536,0 1.46622,0.099 2.39439,1.02721 0.92816,0.92816 1.0272,1.15902 1.0272,2.39439 0,2.49079 -1.38876,3.984757 -3.70417,3.984757 -0.71519,0 -1.52886,-0.20624 -2.03767,-0.51648 z"
       id="path1" /></g></svg>
